<mxfile host="app.diagrams.net" modified="2021-12-07T07:22:12.678Z" agent="5.0 (Windows NT 10.0; Win64; x64) AppleWebKit/537.36 (KHTML, like Gecko) Chrome/96.0.4664.45 Safari/537.36" etag="feT004FF_5SuMLeHNFOk" version="15.5.2" type="github">
  <diagram id="HUO1IgbWimwBjce_jvt0" name="Page-1">
    <mxGraphModel dx="1422" dy="1963" grid="1" gridSize="10" guides="1" tooltips="1" connect="1" arrows="1" fold="1" page="1" pageScale="1" pageWidth="827" pageHeight="1169" math="0" shadow="0">
      <root>
        <mxCell id="0" />
        <mxCell id="1" parent="0" />
        <mxCell id="3t9k9yTE3MlV7EIjJJWl-2" value="" style="rounded=0;whiteSpace=wrap;html=1;" vertex="1" parent="1">
          <mxGeometry x="30" y="40" width="200" height="340" as="geometry" />
        </mxCell>
        <mxCell id="3t9k9yTE3MlV7EIjJJWl-7" style="edgeStyle=orthogonalEdgeStyle;rounded=0;orthogonalLoop=1;jettySize=auto;html=1;exitX=1;exitY=0.5;exitDx=0;exitDy=0;" edge="1" parent="1" source="3t9k9yTE3MlV7EIjJJWl-3" target="3t9k9yTE3MlV7EIjJJWl-5">
          <mxGeometry relative="1" as="geometry" />
        </mxCell>
        <mxCell id="3t9k9yTE3MlV7EIjJJWl-3" value="我是老师" style="rounded=0;whiteSpace=wrap;html=1;" vertex="1" parent="1">
          <mxGeometry x="70" y="110" width="120" height="60" as="geometry" />
        </mxCell>
        <mxCell id="3t9k9yTE3MlV7EIjJJWl-9" style="edgeStyle=orthogonalEdgeStyle;rounded=0;orthogonalLoop=1;jettySize=auto;html=1;exitX=1;exitY=0.5;exitDx=0;exitDy=0;entryX=0;entryY=0.5;entryDx=0;entryDy=0;" edge="1" parent="1" source="3t9k9yTE3MlV7EIjJJWl-4" target="3t9k9yTE3MlV7EIjJJWl-8">
          <mxGeometry relative="1" as="geometry" />
        </mxCell>
        <mxCell id="3t9k9yTE3MlV7EIjJJWl-4" value="我是学生" style="rounded=0;whiteSpace=wrap;html=1;" vertex="1" parent="1">
          <mxGeometry x="70" y="200" width="120" height="60" as="geometry" />
        </mxCell>
        <mxCell id="3t9k9yTE3MlV7EIjJJWl-5" value="老师视图" style="rounded=0;whiteSpace=wrap;html=1;verticalAlign=top;" vertex="1" parent="1">
          <mxGeometry x="320" y="-30" width="240" height="340" as="geometry" />
        </mxCell>
        <mxCell id="3t9k9yTE3MlV7EIjJJWl-8" value="学生视图" style="rounded=0;whiteSpace=wrap;html=1;verticalAlign=top;" vertex="1" parent="1">
          <mxGeometry x="320" y="370" width="240" height="340" as="geometry" />
        </mxCell>
        <mxCell id="3t9k9yTE3MlV7EIjJJWl-21" style="edgeStyle=orthogonalEdgeStyle;rounded=0;orthogonalLoop=1;jettySize=auto;html=1;entryX=0;entryY=0.5;entryDx=0;entryDy=0;" edge="1" parent="1" source="3t9k9yTE3MlV7EIjJJWl-10" target="3t9k9yTE3MlV7EIjJJWl-14">
          <mxGeometry relative="1" as="geometry" />
        </mxCell>
        <mxCell id="3t9k9yTE3MlV7EIjJJWl-10" value="我的" style="whiteSpace=wrap;html=1;aspect=fixed;" vertex="1" parent="1">
          <mxGeometry x="510" y="260" width="50" height="50" as="geometry" />
        </mxCell>
        <mxCell id="3t9k9yTE3MlV7EIjJJWl-11" value="我的" style="whiteSpace=wrap;html=1;aspect=fixed;" vertex="1" parent="1">
          <mxGeometry x="510" y="660" width="50" height="50" as="geometry" />
        </mxCell>
        <mxCell id="3t9k9yTE3MlV7EIjJJWl-12" value="课时" style="whiteSpace=wrap;html=1;aspect=fixed;" vertex="1" parent="1">
          <mxGeometry x="460" y="260" width="50" height="50" as="geometry" />
        </mxCell>
        <mxCell id="3t9k9yTE3MlV7EIjJJWl-13" value="商店" style="whiteSpace=wrap;html=1;aspect=fixed;" vertex="1" parent="1">
          <mxGeometry x="460" y="660" width="50" height="50" as="geometry" />
        </mxCell>
        <mxCell id="3t9k9yTE3MlV7EIjJJWl-14" value="我的" style="rounded=0;whiteSpace=wrap;html=1;verticalAlign=top;" vertex="1" parent="1">
          <mxGeometry x="720" y="-220" width="240" height="340" as="geometry" />
        </mxCell>
        <mxCell id="3t9k9yTE3MlV7EIjJJWl-15" value="备课" style="whiteSpace=wrap;html=1;aspect=fixed;" vertex="1" parent="1">
          <mxGeometry x="410" y="260" width="50" height="50" as="geometry" />
        </mxCell>
        <mxCell id="3t9k9yTE3MlV7EIjJJWl-16" value="学生管理" style="whiteSpace=wrap;html=1;aspect=fixed;" vertex="1" parent="1">
          <mxGeometry x="360" y="260" width="50" height="50" as="geometry" />
        </mxCell>
        <mxCell id="3t9k9yTE3MlV7EIjJJWl-17" value="显示积分" style="text;html=1;strokeColor=none;fillColor=none;align=center;verticalAlign=middle;whiteSpace=wrap;rounded=0;" vertex="1" parent="1">
          <mxGeometry x="740" y="-170" width="60" height="30" as="geometry" />
        </mxCell>
        <mxCell id="3t9k9yTE3MlV7EIjJJWl-20" value="系统设置" style="whiteSpace=wrap;html=1;aspect=fixed;verticalAlign=top;" vertex="1" parent="1">
          <mxGeometry x="800" y="-120" width="50" height="50" as="geometry" />
        </mxCell>
      </root>
    </mxGraphModel>
  </diagram>
</mxfile>
